<?xml version="1.0" encoding="UTF-8"?>
<svg id="Layer_1" data-name="Layer 1" xmlns="http://www.w3.org/2000/svg" viewBox="0 0 74 74">
  <polyline points="37 72 7 54.5 7 19.5 37 2 67 19.5 67 54.5 37 72" style="fill: #fff;"/>
  <path d="M46.44,42.05l2.29,2.35-15.5,11.99-3.03-2,4.25-3.12-3.83-3.08-7.17,1.56-3.15-2.21,26.15-5.5M34.53,47.32l2.51,2.04,5.05-3.71-7.56,1.67Z"/>
  <path d="M19.45,36.7l11.62-19.74c3.32,9.25,1.3,15.35,1.3,15.35-2.58,8.57-7.56,12.6-7.56,12.6-1.46,1.23-2.95.72-3.48-.15-.6-1-.85-2.5-.85-2.5-.15-.59-1.03-5.56-1.03-5.56M22.03,37.12s.36,2.38.43,2.69c0,0,.58,3.5,3.4-.33,0,0,6.08-7.68,3.93-15.16l-7.75,12.8"/>
  <path d="M44.42,22.96l1.63-2.25,9.44,17.59-1.3,2.52-.56-.62c.01,1.04-.17,1.52-.17,1.52-.74,2.63-2.58,2.51-2.58,2.51-3.45-.05-5.88-5.8-5.88-5.8-2.96-6.19-.46-9.41-.46-9.41,1.13-1.38,2.47-1.21,2.47-1.21l-2.58-4.85M50.85,40.58c1.01-.53,1.1-3.14.06-5.77-1.12-2.81-2.5-4.5-3.84-3.86-1.15.55-1.27,3.02-.05,5.59,1.52,3.22,2.83,4.57,3.83,4.03Z"/>
  <path d="M41.25,28.02l3.46-1.81c-.44,3.12-3.6,9.35-3.6,9.35.23.24,2.12,3.85,2.12,3.85l-3.61,1.71-.89-1.56c-4.14,6.03-6.52,4.58-6.52,4.58-1.74-.59-1.4-4.78-1.4-4.78.38-3.82,3.47-8.44,3.47-8.44-1.92-3.56.7-7.3.7-7.3,2.33-3.68,4.53-4,4.53-4,2.25-.51,2.16,1.83,2.16,1.83.37,3.43-3.58,8.48-3.58,8.48.19.86,1.48,2.85,1.48,2.85.69-1.05,1.67-4.75,1.67-4.75M35.46,33.41s-2.83,4.11-1.73,5.95c0,0,1.49,1.67,3.56-2.42l-1.83-3.54M38.78,22.74s-.89-.26-1.9,1.52c0,0-.97,1.84.02,3.55,0,0,1.78-2.49,2.01-3.62,0,0,.47-1.22-.13-1.45"/>
</svg>