<?xml version="1.0" encoding="UTF-8"?>
<svg id="Layer_1" data-name="Layer 1" xmlns="http://www.w3.org/2000/svg" viewBox="0 0 235.35 235.8">
  <path d="M48.15,151.87c1.68,1.63,36.38-4.23,39.95-6.54,1.91-1.23,2.57-4.13,4.56-5.45l1.48,1.99-.5,1.01c32.67-9.77,64.69-26.42,89.1-50.46,13.76-13.56,29.89-34.35,20.42-54.55,6.6,6.48,15.57,17.26,18.29,26.2,8.36,27.44-24.11,57.86-43.99,72.62-22.61,16.78-48.78,28.84-75.63,37.12-4.72,8.83-8.18,18.95-7.69,29.07,1.32,1.3,19.57-3.81,22.77-4.74,4.6-1.33,16.52-4.74,19.97-7.03,3.76-2.5,6.31-10.51,10.77-13.23.03,1.95-.57,7.16,2.81,6.87,2.3-.2,20.26-10.42,23.6-12.46,19.91-12.18,45.52-33.68,54.26-55.74l4.81-17.67c11.18,44.52-22.01,75.28-56.07,96.41-2.6,1.61-17.47,8.87-17.86,10.21-1.2,4.03,6.87,7.48,10.4,7.41,14.46-.32,35.9-23.35,46.05-33.03.36,3.42-4.12,8.37-6.53,11.47-26.92,34.49-81.54,53.9-123.77,39.83-7.13-2.38-10.08-7.6-14.46-9.54-5.34-2.36-11.87-2.68-18.09-5.91-8.68-4.5-27.07-21.4-30.67-30.33-1.55-3.86-1.75-9.44-3.54-12.46-1.38-2.32-4.5-3.41-6.43-5.57C3.71,157.88-.95,131.78.16,119.39c.35-3.86,2.57-8.92,2.65-12.17.08-3-1.74-5.78-1.58-9.68.36-8.9,5.58-19.09,7.93-27.66l1.91,9.57,3.58,4.42c4-5.04,6.63-14.54,14.02-13.96l1.99,8,3.49-.04v5s5.99-4,5.99-4l-7.51,10c-.93.67.56,1.7,1.15,1.86,2.87.78,15.04-.57,18.59-1.14,30.9-4.98,87-30.32,101.64-59.36,5.17-10.26,5.93-17.81-3.86-25.35,25.65,6.88,44.63,17.29,27.42,45.91-15.18,25.24-56.04,48.74-83.17,58.83-6.53,2.43-22.78,5.86-27.22,8.78-3.67,2.42-20.85,31.7-19.03,33.46ZM34.14,120.88c-6.67,1.01-12.53-1.89-18.9-2.93-1.54,4.99-9.12,21.58-6.18,25.49,1.04,1.39,12.24,6.7,13.12,6.02l11.96-28.58ZM65.15,204.88c-.8-8.25,1.5-16.15,3.5-24.01l-27.5-1c.04,5.89,2.2,18.83,6.91,22.58,3.85,3.07,12.4,2.27,17.09,2.42ZM136.5,220.53l-4.64-5.5-29.7,7.34c11.59,10.52,29.25,8.15,42.99,3.49l-8.64-5.33Z" style="fill: #fff;"/>
  <path d="M54.15,18.88l-2.99,3.5c-.16.74,1.03.67,1.48.48,4.31-1.81,11.02-7.56,15.85-10.16,13.99-7.53,37.46-16.94,52.97-10.62,10.04,4.09,7.74,13.76,2.53,21.12-12.79,18.08-48.91,35.16-70.45,38.56-9.66,1.52-28.93,1.81-28.47-12.39.22-6.83,10.46-17.01,15.62-21.46,1.37-1.18,12.61-9.8,13.47-9.02ZM96.9,8.11c-7.87-7.84-38.23,12.04-44.77,18.25-3.66,3.48-9.19,9.08-.42,10.45,11.68,1.82,30.12-6.34,38.91-13.96,3.21-2.79,10.65-10.38,6.29-14.73Z" style="fill: #fff;"/>
</svg>